<svg width="110" height="97" viewBox="0 0 110 97" fill="none" xmlns="http://www.w3.org/2000/svg">
<path d="M99.4559 14.679H69.0199L61.1549 2.71001C60.9047 2.19739 60.5156 1.76532 60.0319 1.46301C59.5482 1.16069 58.9893 1.00027 58.4189 1.00001H24.2189C22.865 0.975456 21.52 1.22405 20.2644 1.73095C19.0087 2.23785 17.8681 2.99264 16.9107 3.95024C15.9533 4.90784 15.1987 6.04859 14.6921 7.30435C14.1854 8.56012 13.9371 9.90512 13.9619 11.259V37.934C18.3008 36.1432 22.947 35.2146 27.6409 35.2C36.7032 35.2264 45.3868 38.8381 51.7948 45.2461C58.2028 51.6541 61.8145 60.3377 61.8409 69.4C61.8257 74.0941 60.8964 78.7402 59.1049 83.079H99.4559C100.81 83.104 102.156 82.8555 103.413 82.3485C104.669 81.8415 105.81 81.0863 106.768 80.1281C107.726 79.17 108.48 78.0285 108.987 76.7719C109.493 75.5154 109.741 74.1696 109.716 72.815V24.938C109.741 23.5839 109.492 22.2386 108.985 20.9826C108.479 19.7267 107.724 18.5858 106.766 17.6281C105.808 16.6705 104.667 15.9158 103.411 15.4091C102.155 14.9023 100.81 14.654 99.4559 14.679ZM102.876 68.027L73.4619 21.519H99.4519C99.9082 21.4914 100.365 21.561 100.793 21.7231C101.22 21.8852 101.608 22.1362 101.931 22.4595C102.255 22.7827 102.506 23.1709 102.668 23.5983C102.83 24.0257 102.899 24.4827 102.872 24.939L102.876 68.027Z" fill="#9A9A9A"/>
<path d="M27.641 42.037C22.2301 42.037 16.9407 43.6415 12.4417 46.6477C7.94268 49.6538 4.43614 53.9265 2.36548 58.9255C0.294813 63.9246 -0.246967 69.4254 0.808648 74.7323C1.86426 80.0392 4.46986 84.9139 8.29594 88.74C12.122 92.5661 16.9968 95.1717 22.3037 96.2273C27.6106 97.2829 33.1114 96.7412 38.1104 94.6705C43.1094 92.5998 47.3822 89.0933 50.3883 84.5943C53.3945 80.0953 54.999 74.8059 54.999 69.395C54.9776 62.1458 52.0884 55.1996 46.9624 50.0736C41.8364 44.9476 34.8902 42.0584 27.641 42.037ZM40.294 72.131C39.9852 72.4552 39.6138 72.7133 39.2023 72.8897C38.7907 73.0661 38.3477 73.157 37.9 73.157C37.4523 73.157 37.0092 73.0661 36.5977 72.8897C36.1861 72.7133 35.8147 72.4552 35.506 72.131L31.06 67.685V83.074C31.0875 83.5303 31.018 83.9873 30.8559 84.4147C30.6937 84.8421 30.4428 85.2303 30.1195 85.5535C29.7963 85.8768 29.4081 86.1278 28.9807 86.2899C28.5532 86.452 28.0963 86.5216 27.64 86.494C27.1837 86.5216 26.7267 86.452 26.2993 86.2899C25.8718 86.1278 25.4837 85.8768 25.1604 85.5535C24.8372 85.2303 24.5862 84.8421 24.4241 84.4147C24.262 83.9873 24.1924 83.5303 24.22 83.074V67.685L19.774 72.131C19.139 72.7659 18.2779 73.1226 17.38 73.1226C16.482 73.1226 15.6209 72.7659 14.986 72.131C14.351 71.4961 13.9943 70.6349 13.9943 69.737C13.9943 68.8391 14.351 67.9779 14.986 67.343L25.245 56.743C25.5537 56.4188 25.9252 56.1607 26.3367 55.9843C26.7482 55.8079 27.1912 55.717 27.639 55.717C28.0867 55.717 28.5297 55.8079 28.9413 55.9843C29.3528 56.1607 29.7242 56.4188 30.033 56.743L40.292 67.343C40.6163 67.6516 40.8746 68.0229 41.0511 68.4344C41.2277 68.8458 41.3188 69.2889 41.319 69.7366C41.3192 70.1843 41.2284 70.6274 41.0522 71.039C40.876 71.4506 40.6181 71.8221 40.294 72.131Z" fill="#9A9A9A"/>
</svg>
