<svg width="144" height="35" viewBox="0 0 144 35" fill="none" xmlns="http://www.w3.org/2000/svg">
<path d="M131.608 2.67601C131.483 2.99858 131.263 3.2757 130.978 3.47083C130.692 3.66595 130.354 3.76992 130.008 3.76901H55.489C55.2112 3.76904 54.9375 3.70138 54.6917 3.57188C54.4459 3.44238 54.2354 3.25495 54.0783 3.02579C53.9213 2.79663 53.8224 2.53266 53.7903 2.2567C53.7582 1.98074 53.7938 1.70111 53.894 1.44201C54.0185 1.12015 54.2375 0.843504 54.5222 0.648426C54.8069 0.453348 55.1439 0.348968 55.489 0.349007H130.008C130.286 0.348162 130.56 0.415226 130.807 0.544382C131.053 0.673537 131.265 0.860881 131.422 1.09016C131.58 1.31943 131.679 1.58372 131.712 1.86007C131.744 2.13643 131.708 2.41651 131.608 2.67601Z" fill="white"/>
<path d="M135.254 32.375C135.13 32.6966 134.911 32.9732 134.626 33.1682C134.342 33.3633 134.005 33.4678 133.66 33.4679H43.284C43.0063 33.468 42.7328 33.4004 42.4871 33.2709C42.2414 33.1415 42.031 32.9541 41.874 32.725C41.717 32.496 41.6182 32.2321 41.5861 31.9563C41.5541 31.6804 41.5897 31.4009 41.69 31.1419C41.8143 30.8202 42.0331 30.5436 42.3176 30.3485C42.6021 30.1534 42.939 30.049 43.284 30.049H133.661C133.939 30.0489 134.212 30.1165 134.458 30.246C134.704 30.3754 134.914 30.5628 135.071 30.7919C135.228 31.0209 135.327 31.2848 135.359 31.5606C135.391 31.8365 135.355 32.116 135.255 32.375H135.254Z" fill="white"/>
<path d="M57.1 6.088C58.4521 6.05873 59.7986 6.26967 61.077 6.711C62.0834 7.0492 62.9778 7.6569 63.663 8.468C64.2818 9.2539 64.6345 10.2163 64.67 11.216C64.7047 12.4507 64.4656 13.6777 63.97 14.809H58.313C57.9552 14.8213 57.6011 14.7329 57.291 14.554C57.013 14.3833 56.928 14.0747 57.036 13.628C57.0959 13.4987 57.1457 13.365 57.185 13.228C57.2144 13.1135 57.2518 13.0012 57.297 12.892C57.4161 12.5101 57.4592 12.1085 57.424 11.71C57.382 11.39 57.1486 11.23 56.724 11.23C56.3 11.1957 55.8785 11.3209 55.542 11.581C55.3098 11.7839 55.1242 12.0347 54.998 12.316C54.8602 12.5503 54.7916 12.8188 54.8001 13.0904C54.8086 13.3621 54.8938 13.6258 55.046 13.851C55.4204 14.3352 55.8807 14.7464 56.404 15.064C57.004 15.4487 57.659 15.837 58.369 16.229C59.0548 16.6009 59.6847 17.0679 60.24 17.616C60.7671 18.1417 61.1465 18.7971 61.34 19.516C61.5192 20.4211 61.3896 21.3602 60.972 22.183C60.6042 23.101 60.1152 23.9657 59.518 24.754C58.9893 25.4341 58.3326 26.0042 57.585 26.432C56.776 26.8802 55.8969 27.1879 54.985 27.342C53.8287 27.5365 52.6574 27.6275 51.485 27.614C50.1342 27.6426 48.7887 27.4372 47.508 27.007C46.5006 26.6784 45.605 26.0751 44.922 25.265C44.3021 24.4792 43.944 23.5189 43.898 22.519C43.8578 21.2713 44.1037 20.031 44.617 18.893H50.24C50.6166 18.8636 50.9903 18.9779 51.286 19.213C51.516 19.4263 51.5373 19.8747 51.35 20.558C51.307 20.728 51.275 20.858 51.25 20.941C51.1479 21.2935 51.1203 21.6633 51.169 22.027C51.223 22.3257 51.452 22.475 51.856 22.475C52.1938 22.5042 52.5321 22.4235 52.8204 22.245C53.1087 22.0664 53.3316 21.7995 53.456 21.484C53.5843 21.2534 53.6463 20.9917 53.635 20.728C53.6237 20.4643 53.5396 20.2088 53.392 19.99C53.0306 19.5053 52.5811 19.0931 52.067 18.775C51.481 18.3923 50.842 17.9983 50.15 17.593C49.48 17.2061 48.8671 16.7279 48.329 16.172C47.8086 15.6319 47.4338 14.9685 47.24 14.244C47.0609 13.3232 47.1903 12.369 47.608 11.529C47.956 10.6075 48.4349 9.74097 49.03 8.956C49.56 8.27431 50.2201 7.70462 50.972 7.28C51.7883 6.82807 52.6746 6.51608 53.594 6.357C54.7503 6.16353 55.9216 6.07351 57.094 6.088H57.1Z" fill="#E61525"/>
<path d="M67.101 26.888C66.3185 26.6926 65.5841 26.3394 64.943 25.85C64.443 25.4592 64.0663 24.9325 63.858 24.333C63.6627 23.736 63.5865 23.1064 63.634 22.48C63.655 22.18 63.688 21.88 63.734 21.601C63.777 21.3112 63.8521 21.0271 63.958 20.754L69.547 6.474H76.353L71.273 20.18C71.1897 20.3249 71.1432 20.488 71.1376 20.655C71.132 20.822 71.1675 20.9879 71.241 21.138C71.3143 21.2746 71.426 21.3866 71.5623 21.4604C71.6986 21.5342 71.8536 21.5663 72.008 21.553C72.4102 21.5385 72.7965 21.3928 73.108 21.138C73.4523 20.8972 73.7231 20.5656 73.89 20.18L79.482 6.474H86.482L78.082 27.243C76.6767 27.265 75.42 27.276 74.312 27.276H70.542C69.3826 27.3053 68.2247 27.1748 67.101 26.888Z" fill="#E61525"/>
<path d="M102.955 9.435C102.415 8.57735 101.615 7.91501 100.672 7.545C99.507 7.09199 98.2636 6.87512 97.014 6.907H89.095L80.662 27.716L77.713 35H84.549L87.549 27.716H91.962C92.966 27.727 93.9692 27.6571 94.962 27.507C95.7921 27.3788 96.5837 27.0688 97.28 26.599C98.0391 26.0588 98.6895 25.3803 99.197 24.599C99.905 23.5034 100.508 22.3432 100.997 21.134C101.254 20.5153 101.436 20.067 101.543 19.789C101.643 19.514 101.743 19.263 101.828 19.042L102.15 18.21C102.277 17.8813 102.477 17.344 102.75 16.598C103.297 15.2941 103.611 13.9044 103.677 12.492C103.741 11.4242 103.49 10.3611 102.955 9.435ZM96.082 14.106L93.431 21.187C93.323 21.6108 93.0677 21.9822 92.7107 22.2349C92.3538 22.4876 91.9186 22.605 91.483 22.566C91.33 22.5879 91.1739 22.5664 91.0325 22.504C90.891 22.4416 90.77 22.3408 90.683 22.213C90.556 21.977 90.652 21.455 90.971 20.641L93.464 14.141C93.6034 13.7278 93.8318 13.3503 94.133 13.035C94.469 12.8008 94.8775 12.6944 95.285 12.735C95.444 12.7211 95.6038 12.751 95.7469 12.8215C95.8901 12.8921 96.0112 13.0005 96.097 13.135C96.1764 13.2855 96.2169 13.4534 96.2148 13.6235C96.2127 13.7936 96.1681 13.9605 96.085 14.109L96.082 14.106Z" fill="#E61525"/>
<path d="M117.769 27.279H108.953C108.064 27.2835 107.181 27.1485 106.334 26.879C105.544 26.6416 104.846 26.168 104.334 25.522C103.799 24.7753 103.503 23.8835 103.487 22.965C103.482 21.5976 103.776 20.2456 104.349 19.004C104.456 18.684 104.616 18.2473 104.829 17.694L105.5 15.937C105.777 15.2116 106.129 14.3386 106.555 13.318C107.279 11.3704 108.515 9.65409 110.132 8.34997C111.775 7.08018 113.807 6.41963 115.883 6.48097H116.107C117.22 6.46155 118.319 6.72585 119.302 7.24897C119.512 7.01576 119.766 6.82558 120.049 6.68897C120.375 6.54283 120.73 6.47176 121.088 6.48097H126.199L117.769 27.279ZM111.22 20.213C110.879 21.0256 110.779 21.549 110.92 21.783C111.011 21.91 111.135 22.0099 111.278 22.0721C111.422 22.1343 111.579 22.1563 111.734 22.136C112.032 22.153 112.33 22.0978 112.603 21.975C112.875 21.8523 113.114 21.6657 113.299 21.431L115.312 16.463L116.368 13.669C116.452 13.5202 116.497 13.3529 116.499 13.1822C116.502 13.0116 116.461 12.843 116.382 12.692C116.296 12.5568 116.175 12.4479 116.031 12.3773C115.888 12.3068 115.727 12.2772 115.568 12.292C115.166 12.2543 114.764 12.3606 114.434 12.592C114.132 12.9105 113.898 13.2867 113.746 13.698L111.22 20.213Z" fill="#E61525"/>
<path d="M139.669 6.47101C140.453 6.66702 141.187 7.02316 141.826 7.51701C142.326 7.90834 142.703 8.43533 142.911 9.03501C143.106 9.63198 143.172 10.2636 143.104 10.888C143.102 11.4752 143.005 12.0581 142.816 12.614L137.066 27.279H130.266L135.507 13.189C135.59 13.0412 135.637 12.8754 135.642 12.7058C135.647 12.5362 135.612 12.3678 135.538 12.215C135.461 12.0823 135.349 11.9742 135.213 11.9034C135.077 11.8326 134.924 11.8019 134.771 11.815C134.371 11.8293 133.986 11.9692 133.671 12.215C133.316 12.4605 133.035 12.7969 132.855 13.189L127.129 27.279H120.129L130.266 2.31001C130.446 1.83439 130.77 1.42699 131.193 1.14501C131.596 0.863933 132.075 0.71315 132.566 0.713013H137.742L135.559 6.09201H136.243C137.397 6.06358 138.549 6.19107 139.669 6.47101Z" fill="#E61525"/>
<path d="M35.586 14.705C34.7545 13.7756 33.6049 13.1915 32.364 13.068C32.23 13.052 32.098 13.04 31.964 13.034C31.5299 11.7042 30.9144 10.4406 30.135 9.27901C29.2068 7.88978 27.9919 6.71545 26.572 5.83501L25.614 5.30701L24.284 4.57501C24.1571 4.50237 24.0483 4.40184 23.966 4.28101C23.8394 4.09613 23.7786 3.87409 23.7932 3.6505C23.8079 3.42692 23.8973 3.21474 24.047 3.04801C24.068 3.0245 24.0816 2.99526 24.086 2.96401C24.0905 2.93263 24.0857 2.90061 24.072 2.87201C24.0582 2.84382 24.0363 2.82046 24.009 2.80501C23.982 2.78961 23.9509 2.78298 23.92 2.78601C23.4202 2.84317 22.9245 2.93202 22.436 3.05201C22.3257 3.07923 22.2112 3.08441 22.099 3.06725C21.9868 3.05009 21.879 3.01093 21.782 2.95201C21.5845 2.83112 21.4413 2.6388 21.382 2.41501C21.2869 2.07847 21.3038 1.72016 21.43 1.39401C21.4509 1.33919 21.4561 1.27962 21.445 1.22201C21.4339 1.16468 21.4069 1.11165 21.367 1.06901C21.3276 1.02691 21.2769 0.997053 21.221 0.983011C21.1653 0.969464 21.1069 0.972594 21.053 0.992011C13.831 3.46301 10.225 7.16201 10.006 7.39201L9.99597 7.40301C9.42536 7.97472 8.91223 8.60106 8.46397 9.27301C7.69565 10.4368 7.09004 11.7002 6.66397 13.028C6.49397 13.033 6.32097 13.047 6.14497 13.068C4.90405 13.1915 3.75446 13.7756 2.92297 14.705C2.49841 15.2202 2.18724 15.8191 2.00976 16.4627C1.83228 17.1063 1.79249 17.78 1.89297 18.44C2.08098 19.9338 2.71568 21.336 3.71397 22.463C4.34947 23.2156 5.192 23.765 6.13697 24.043L5.19297 25.684C5.1802 25.7059 5.17459 25.7313 5.17692 25.7566C5.17925 25.7819 5.18941 25.8058 5.20597 25.825C5.22203 25.844 5.24377 25.8573 5.26797 25.863C5.2921 25.8686 5.31737 25.8661 5.33997 25.856L6.30797 25.418C6.32233 25.4118 6.33781 25.4085 6.35347 25.4085C6.36913 25.4085 6.38462 25.4118 6.39897 25.418C6.41368 25.4243 6.42695 25.4334 6.43797 25.445C6.44887 25.4566 6.45737 25.4702 6.46297 25.485L7.76297 28.885C7.77169 28.9088 7.78781 28.9291 7.80897 28.943C7.83003 28.957 7.85517 28.9635 7.88037 28.9615C7.90557 28.9595 7.92937 28.9491 7.94797 28.932C7.96697 28.9149 7.97994 28.8921 7.98497 28.867L8.15797 28.067C8.16156 28.0508 8.16836 28.0355 8.17797 28.022C8.18758 28.0087 8.19984 27.9974 8.21397 27.989C8.22795 27.981 8.24343 27.976 8.25943 27.9743C8.27543 27.9726 8.29162 27.9742 8.30697 27.979C8.7109 28.4427 9.15312 28.8715 9.62897 29.261C12.3916 31.3556 15.7887 32.4399 19.254 32.333C22.1171 32.3835 24.943 31.6785 27.447 30.289L27.516 30.248C28.0144 29.9536 28.4909 29.6238 28.942 29.261C29.4317 28.8642 29.8874 28.427 30.304 27.954C30.3195 27.9423 30.3377 27.9347 30.357 27.932C30.3758 27.9292 30.3951 27.9313 30.413 27.938C30.4312 27.9449 30.4473 27.9562 30.46 27.971C30.4728 27.9859 30.4817 28.0038 30.486 28.023L30.659 28.823C30.6647 28.8475 30.678 28.8695 30.697 28.886C30.7156 28.9027 30.7391 28.9129 30.764 28.915C30.7885 28.9171 30.8131 28.9111 30.834 28.898C30.8553 28.8845 30.8718 28.8646 30.881 28.841L32.181 25.441C32.1866 25.4261 32.1951 25.4125 32.206 25.401C32.218 25.391 32.232 25.3835 32.247 25.379C32.2613 25.3727 32.2768 25.3694 32.2925 25.3694C32.3081 25.3694 32.3236 25.3727 32.338 25.379L33.306 25.818C33.3288 25.8287 33.3544 25.8315 33.379 25.826C33.4035 25.8205 33.4257 25.8072 33.442 25.788C33.4586 25.7686 33.4687 25.7444 33.4709 25.7189C33.473 25.6935 33.4671 25.668 33.454 25.646L32.51 24.006C33.4002 23.7128 34.1921 23.1792 34.798 22.464C35.7966 21.3372 36.4314 19.9349 36.619 18.441C36.7183 17.7807 36.6777 17.1068 36.4997 16.4632C36.3217 15.8195 36.0104 15.2205 35.586 14.705ZM5.59297 20.261C5.59172 20.9178 5.63751 21.5738 5.72997 22.224C5.38494 22.0058 5.07308 21.739 4.80397 21.432C4.01938 20.5418 3.51833 19.4377 3.36497 18.261C3.29135 17.8128 3.31296 17.354 3.4284 16.9147C3.54384 16.4753 3.75052 16.0652 4.03497 15.711C4.60242 15.0857 5.37873 14.6892 6.21797 14.596C5.79268 16.4551 5.58296 18.3569 5.59297 20.264V20.261ZM35.14 18.261C35.0612 19.0242 34.8229 19.7624 34.4405 20.4275C34.058 21.0927 33.54 21.67 32.92 22.122C33.0051 21.5057 33.0472 20.8842 33.046 20.262C33.0557 18.362 32.8446 16.4673 32.417 14.616C33.2094 14.734 33.9366 15.1227 34.475 15.716C34.7575 16.0716 34.9626 16.4823 35.0771 16.9217C35.1917 17.3612 35.2131 17.8198 35.14 18.268V18.261Z" fill="#E61525"/>
<path d="M21.143 1C21.1916 0.998674 21.2398 1.00968 21.283 1.032C21.3271 1.05571 21.3646 1.09009 21.392 1.132C21.4197 1.17331 21.437 1.22073 21.4424 1.27019C21.4478 1.31965 21.4412 1.36968 21.423 1.416C21.297 1.74148 21.2801 2.09911 21.375 2.435C21.4262 2.62363 21.537 2.79062 21.691 2.911C21.8434 3.02958 22.0309 3.09398 22.224 3.094C22.2945 3.09374 22.3646 3.08501 22.433 3.068C22.9218 2.94734 23.4178 2.85783 23.918 2.8H23.935C23.9646 2.80028 23.9935 2.80933 24.018 2.826C24.0419 2.84509 24.0597 2.87084 24.069 2.9C24.0806 2.9278 24.0842 2.95831 24.0792 2.98804C24.0743 3.01776 24.061 3.04547 24.041 3.068C23.9428 3.17757 23.8703 3.30776 23.829 3.449C23.7874 3.59077 23.7778 3.73999 23.8008 3.88592C23.8238 4.03185 23.8789 4.17088 23.962 4.293C24.0443 4.41387 24.153 4.51442 24.28 4.587L25.61 5.318C25.61 5.318 26.568 5.844 26.568 5.845C27.9878 6.7244 29.2027 7.89772 30.131 9.286C30.9143 10.4478 31.5328 11.7125 31.969 13.044C32.1 13.05 32.233 13.062 32.369 13.078C33.6096 13.2012 34.7591 13.7845 35.591 14.713C36.0155 15.227 36.3265 15.825 36.5039 16.4676C36.6812 17.1102 36.7208 17.783 36.62 18.442C36.4324 19.9336 35.7979 21.3336 34.8 22.458C34.193 23.1747 33.3988 23.7085 32.506 24L33.45 25.638C33.4603 25.6563 33.4658 25.677 33.4658 25.698C33.4658 25.719 33.4603 25.7397 33.45 25.758C33.4402 25.7765 33.4257 25.792 33.408 25.803C33.3905 25.8137 33.3705 25.8196 33.35 25.82C33.3338 25.82 33.3178 25.8165 33.303 25.81L32.335 25.371C32.3206 25.3643 32.3049 25.3608 32.289 25.361C32.2657 25.3614 32.2431 25.3687 32.224 25.382C32.2047 25.3954 32.1898 25.4142 32.181 25.436L30.881 28.831C30.8718 28.8545 30.8553 28.8745 30.834 28.888C30.8131 28.9013 30.7884 28.9075 30.7637 28.9055C30.7389 28.9035 30.7155 28.8935 30.697 28.877C30.6781 28.8605 30.6648 28.8384 30.659 28.814L30.486 28.014C30.48 27.9881 30.4656 27.9648 30.445 27.948C30.4247 27.9314 30.3993 27.9222 30.373 27.922C30.3481 27.9219 30.3238 27.9299 30.304 27.945C29.8873 28.4174 29.4317 28.8539 28.942 29.25C28.4909 29.6121 28.0143 29.9412 27.516 30.235L27.447 30.276C24.9422 31.6625 22.1165 32.3654 19.254 32.314C15.7887 32.419 12.3919 31.3342 9.629 29.24C9.1529 28.8519 8.71033 28.4244 8.306 27.962C8.29526 27.9589 8.28417 27.9572 8.273 27.957C8.24607 27.9569 8.21994 27.9661 8.199 27.983C8.17782 28.0004 8.16304 28.0243 8.157 28.051L7.984 28.851C7.97859 28.8777 7.96411 28.9018 7.943 28.919C7.92168 28.9348 7.89548 28.9426 7.869 28.941C7.84577 28.9413 7.82304 28.9343 7.804 28.921C7.78468 28.9074 7.77002 28.8882 7.762 28.866L6.462 25.472C6.45354 25.4497 6.43855 25.4306 6.419 25.417C6.39998 25.4035 6.3773 25.3962 6.354 25.396C6.33778 25.3958 6.32173 25.3992 6.307 25.406L5.339 25.844C5.32372 25.8514 5.30695 25.8551 5.29 25.855C5.26949 25.8546 5.24947 25.8487 5.232 25.838C5.21426 25.827 5.19977 25.8115 5.19 25.793C5.17966 25.7747 5.17422 25.754 5.17422 25.733C5.17422 25.712 5.17966 25.6913 5.19 25.673L6.134 24.034C5.18916 23.7573 4.34655 23.2089 3.711 22.457C2.71313 21.3324 2.07839 19.9326 1.89 18.441C1.78962 17.782 1.82948 17.1091 2.00697 16.4666C2.18446 15.824 2.49558 15.2261 2.92 14.712C3.75193 13.7835 4.90141 13.2002 6.142 13.077C6.318 13.056 6.491 13.042 6.661 13.037C7.08726 11.7111 7.69287 10.4498 8.461 9.288C8.9102 8.61653 9.42434 7.99085 9.996 7.42L10.006 7.409C10.224 7.18 13.827 3.486 21.047 1.022C21.0792 1.01104 21.113 1.00563 21.147 1.006L21.143 1ZM5.731 22.219C5.63854 21.5698 5.59275 20.9148 5.594 20.259C5.58402 18.3549 5.79374 16.456 6.219 14.6C5.38027 14.6942 4.60439 15.0901 4.036 15.714C3.75159 16.0674 3.54491 16.4768 3.42946 16.9155C3.31401 17.3542 3.29239 17.8124 3.366 18.26C3.51955 19.4351 4.02063 20.5376 4.805 21.426C5.07417 21.7327 5.38602 21.9991 5.731 22.217V22.219ZM32.92 22.119C33.5391 21.6675 34.0566 21.0911 34.439 20.427C34.8214 19.763 35.0602 19.0261 35.14 18.264C35.2136 17.8164 35.192 17.3582 35.0765 16.9195C34.9611 16.4808 34.7544 16.0714 34.47 15.718C33.9325 15.1247 33.2045 14.7381 32.412 14.625C32.8397 16.4732 33.0508 18.365 33.041 20.262C33.0423 20.8835 33.0002 21.5044 32.915 22.12L32.92 22.119ZM21.143 0C21.0069 0.000229237 20.8717 0.0228653 20.743 0.067C17.7728 1.06195 14.9526 2.45857 12.361 4.218C11.2669 4.94577 10.2452 5.77691 9.31 6.7C8.6951 7.31597 8.14181 7.9905 7.658 8.714C6.95842 9.76684 6.38578 10.8987 5.952 12.086C4.49736 12.2526 3.15551 12.9506 2.184 14.046C1.66669 14.6659 1.28644 15.3882 1.06825 16.1655C0.850048 16.9428 0.798842 17.7575 0.917996 18.556C1.13141 20.2555 1.85328 21.8508 2.989 23.133C3.48021 23.6932 4.06237 24.1665 4.711 24.533L4.349 25.161C4.23018 25.3659 4.17792 25.6027 4.19941 25.8386C4.22091 26.0745 4.3151 26.2979 4.469 26.478C4.62232 26.6557 4.82889 26.7791 5.058 26.83C5.28592 26.8801 5.52397 26.8545 5.736 26.757L5.878 26.693L6.851 29.228C6.91494 29.3951 7.01778 29.5446 7.151 29.664C7.2831 29.7821 7.44203 29.8662 7.614 29.909C7.78503 29.9518 7.96397 29.9518 8.135 29.909C8.30679 29.8654 8.46537 29.7807 8.597 29.662C8.73433 29.7853 8.87433 29.9053 9.017 30.022C11.953 32.2555 15.5656 33.4156 19.253 33.309C22.286 33.3624 25.2792 32.6138 27.93 31.139L27.943 31.132L27.956 31.124L27.997 31.099C28.5377 30.7815 29.0547 30.4252 29.544 30.033C29.711 29.898 29.872 29.76 30.034 29.619C30.1646 29.74 30.3229 29.8272 30.495 29.873C30.6662 29.9181 30.8458 29.9201 31.018 29.879C31.1911 29.8377 31.3514 29.7546 31.485 29.637C31.6182 29.5175 31.721 29.3681 31.785 29.201L32.759 26.661L32.904 26.727C33.1161 26.8186 33.3522 26.8393 33.577 26.786C33.8028 26.7322 34.0056 26.6079 34.156 26.431C34.3083 26.2513 34.4016 26.029 34.423 25.7945C34.4445 25.5599 34.3932 25.3244 34.276 25.12L33.897 24.462C34.4965 24.1054 35.0364 23.6569 35.497 23.133C36.6331 21.8512 37.3548 20.2556 37.567 18.556C37.6859 17.7576 37.6345 16.9432 37.4163 16.1661C37.1982 15.389 36.8181 14.6668 36.301 14.047C35.3637 12.9825 34.0743 12.2914 32.669 12.1C32.2279 10.901 31.644 9.75942 30.93 8.7C29.9218 7.20017 28.6055 5.93236 27.069 4.981C27.045 4.966 27.019 4.95 26.992 4.935L26.882 4.875L26.552 4.693L26.069 4.43L24.78 3.72C24.9229 3.55103 25.0151 3.34511 25.046 3.126C25.0773 2.90583 25.0462 2.68129 24.956 2.478C24.8679 2.27473 24.7231 2.10115 24.539 1.978C24.3575 1.85781 24.1447 1.79349 23.927 1.793C23.8869 1.79282 23.8468 1.79515 23.807 1.8H23.801C23.2928 1.85824 22.7886 1.94673 22.291 2.065C22.2782 1.96857 22.2902 1.87046 22.326 1.78C22.4011 1.58407 22.4286 1.37309 22.4062 1.16445C22.3838 0.955806 22.3121 0.755486 22.197 0.58C22.0805 0.402683 21.9222 0.256732 21.736 0.155C21.552 0.0544587 21.3457 0.0015205 21.136 0.001L21.143 0Z" fill="white"/>
<path d="M27.623 19.402C27.623 19.402 26.937 21.172 24.329 19.99C24.111 19.89 23.888 19.79 23.665 19.696C24.2637 20.0598 24.7719 20.555 25.1513 21.144C25.5306 21.7329 25.7713 22.4004 25.855 23.096C25.7953 24.8044 25.0602 26.4194 23.811 27.5865C22.5618 28.7536 20.9006 29.3774 19.192 29.3209C17.4834 29.3774 15.8222 28.7536 14.5731 27.5865C13.3239 26.4194 12.5888 24.8044 12.529 23.096C12.6056 22.4214 12.8328 21.7728 13.1936 21.1978C13.5545 20.6228 14.0399 20.1362 14.614 19.774C14.4507 19.8446 14.2874 19.9163 14.124 19.989C11.518 21.165 10.83 19.401 10.83 19.401C10.83 19.401 8.56902 13.925 10.83 12.62C12.9159 11.6312 15.1648 11.0317 17.466 10.851C17.884 10.851 19.095 12.774 19.224 12.979C19.35 12.779 20.561 10.851 20.98 10.851C23.2813 11.0313 25.5303 11.6308 27.616 12.62C29.877 13.922 27.623 19.402 27.623 19.402Z" fill="white"/>
<path d="M15.616 15.173V16.673C15.5829 16.8515 15.4884 17.0127 15.3489 17.1288C15.2093 17.2449 15.0335 17.3084 14.852 17.3084C14.6705 17.3084 14.4947 17.2449 14.3551 17.1288C14.2156 17.0127 14.1211 16.8515 14.088 16.673V15.148C14.088 15.1017 14.0941 15.0557 14.106 15.011L15.616 15.173Z" fill="#F72644"/>
<path d="M24.306 15.1481V16.6731C24.2735 16.8521 24.1791 17.0141 24.0394 17.1307C23.8997 17.2474 23.7235 17.3112 23.5415 17.3112C23.3595 17.3112 23.1833 17.2474 23.0435 17.1307C22.9038 17.0141 22.8095 16.8521 22.777 16.6731V15.1731L24.287 15.0081C24.2993 15.0527 24.3057 15.0988 24.306 15.1451V15.1481Z" fill="#F72644"/>
<path d="M24.072 21.837C24.0687 22.2056 23.9857 22.569 23.8288 22.9025C23.6719 23.2359 23.4448 23.5315 23.163 23.769C22.5783 24.2415 21.8744 24.5429 21.129 24.64C20.4356 24.736 19.7324 24.736 19.039 24.64C18.3697 24.5517 17.7099 24.4021 17.068 24.193C16.976 24.1663 16.8967 24.1073 16.8445 24.027C16.7923 23.9467 16.7706 23.8503 16.7835 23.7554C16.7963 23.6605 16.8428 23.5733 16.9144 23.5097C16.9861 23.4462 17.0782 23.4104 17.174 23.409C17.837 23.383 18.488 23.389 19.123 23.395C19.758 23.401 20.379 23.405 20.973 23.359C21.5477 23.3336 22.1138 23.2101 22.647 22.994C22.9148 22.8785 23.1655 22.7268 23.392 22.543C23.6426 22.3314 23.8714 22.0952 24.075 21.838L24.072 21.837Z" fill="#F72644"/>
</svg>
